{"title":"Animal.Kingdom.DvDScr.H264.Feel-Free","uid":5866276,"size":871658689,"categoryP":"video","categoryS":"movies","magnet":"?xt=urn:btih:8aa56dd639952c9bfa4ec24d9f37079519457f0c&amp;dn=Animal.Kingdom.DvDScr.H264.Feel-Free&amp;tr=udp%3A%2F%2Ftracker.openbittorrent.com%3A80&amp;tr=udp%3A%2F%2Fopen.demonii.com%3A1337&amp;tr=udp%3A%2F%2Ftracker.coppersurfer.tk%3A6969&amp;tr=udp%3A%2F%2Fexodus.desync.com%3A6969","seeders":0,"leechers":0,"uploader":"neon","files":-1,"time":1286226531,"description":"Despite being no saint herself, Julia Cody has shielded her seventeen year old son, Joshua &quot;J&quot; Cody, from her Melbourne-based criminal relatives who they have not seen in years. After Julia dies in front of J's eyes from a self-inflicted heroin overdose, J, who is slightly detached from life, feels he has no choice but to contact his maternal grandmother, Janine &quot;Smurf&quot; Cody, the family matriarch, for a place to live. Smurf rules the family with a borderline incestuous love over her three sons, the quietly menacing Andrew &quot;Pope&quot; Cody, the hyperactive Craig Cody, and the barely of age Darren Cody. Pope and his best friend, Barry &quot;Baz&quot; Brown, are armed robbers, with Darren their up and coming apprentice, while Craig is a mid level drug dealer. Melbourne's Armed Robbery Squad is after specifically Pope, who is hiding out. But when the standoff between the Codys and the Armed Robbery Squad is brought up a notch.\n &lt;a href=&quot;\nhttp://www.starshare.ro/bitbucket/Animal.Kingdom.DvDScr.H264.Feel-Free.mp4_snapshot_00.13.08_%5B2010.10.04_12.02.36%5D.jpg&quot; rel=&quot;nofollow&quot; target=&quot;_NEW&quot;&gt;\nhttp://www.starshare.ro/bitbucket/Animal.Kingdom.DvDScr.H264.Feel-Free.mp4_snapshot_00.13.08_%5B2010.10.04_12.02.36%5D.jpg&lt;/a&gt;\n &lt;a href=&quot;\nhttp://www.starshare.ro/bitbucket/Animal.Kingdom.DvDScr.H264.Feel-Free.mp4_snapshot_00.42.37_%5B2010.10.04_12.02.26%5D.jpg&quot; rel=&quot;nofollow&quot; target=&quot;_NEW&quot;&gt;\nhttp://www.starshare.ro/bitbucket/Animal.Kingdom.DvDScr.H264.Feel-Free.mp4_snapshot_00.42.37_%5B2010.10.04_12.02.26%5D.jpg&lt;/a&gt;\n &lt;a href=&quot;\nhttp://www.starshare.ro/bitbucket/Animal.Kingdom.DvDScr.H264.Feel-Free.mp4_snapshot_00.14.40_%5B2010.10.04_12.02.41%5D.jpg&quot; rel=&quot;nofollow&quot; target=&quot;_NEW&quot;&gt;\nhttp://www.starshare.ro/bitbucket/Animal.Kingdom.DvDScr.H264.Feel-Free.mp4_snapshot_00.14.40_%5B2010.10.04_12.02.41%5D.jpg&lt;/a&gt;\n &lt;a href=&quot;\nhttp://www.youtube.com/watch?v=YNszOl14AWg&amp;feature=player_embedded&quot; rel=&quot;nofollow&quot; target=&quot;_NEW&quot;&gt;\nhttp://www.youtube.com/watch?v=YNszOl14AWg&amp;feature=player_embedded&lt;/a&gt;\n\nGenre:Crime | Drama\nLanguage:English\nIMDb:http://www.imdb.com/title/tt1313092/\nSource:DvDScr T0XiC\n\nGeneral\nComplete name :Animal.Kingdom.DvDScr.H264.Feel-Free\nFormat : MPEG-4\nFormat profile : Base Media\nCodec ID : isom\nFile size : 831 MiB\nDuration : 1h 48mn\nOverall bit rate : 1 072 Kbps\nVideo #2\nCodec ID : avc1\nCodec ID/Info : Advanced Video Coding\nDuration : 1h 48mn\nBit rate mode : Variable\nBit rate : 905 Kbps\nWidth : 720 pixels\nHeight : 304 pixels\nDisplay aspect ratio : 2.35:1\nFrame rate mode : Constant\nFrame rate : 25.000 fps\nResolution : 24 bits\nColorimetry : 4:2:0\nScan type : Progressive\nBits/(Pixel*Frame) : 0.165\nStream size : 701 MiB (84%)\nAudio #1\nID : 1\nFormat : AAC\nFormat/Info : Advanced Audio Codec\nFormat version : Version 4\nFormat profile : LC\nFormat settings, SBR : No\nCodec ID : 40\nDuration : 1h 48mn\nBit rate mode : Constant\nBit rate : 160 Kbps\nChannel(s) : 2 channels\nChannel positions : L R\nSampling rate : 48.0 KHz\nResolution : 16 bits\nStream size : 124 MiB (15%)","torrent":{"xt":"urn:btih:8aa56dd639952c9bfa4ec24d9f37079519457f0c","amp;dn":"Animal.Kingdom.DvDScr.H264.Feel-Free","amp;tr":["udp%3A%2F%2Ftracker.openbittorrent.com%3A80","udp%3A%2F%2Fopen.demonii.com%3A1337","udp%3A%2F%2Ftracker.coppersurfer.tk%3A6969","udp%3A%2F%2Fexodus.desync.com%3A6969"],"infoHash":"8aa56dd639952c9bfa4ec24d9f37079519457f0c","infoHashBuffer":{"type":"Buffer","data":[138,165,109,214,57,149,44,155,250,78,194,77,159,55,7,149,25,69,127,12]},"announce":[],"urlList":[]}}